<svg xmlns="http://www.w3.org/2000/svg" width="318" height="132" fill="none" viewBox="0 0 318 132"><path fill="#FFE1F1" d="m.797 0 123.727 108.191c19.251 16.884 50.498 16.884 69.748 0L318 0H.797Z"/><mask id="mask0_703_220541" width="318" height="121" x="0" y="0" maskUnits="userSpaceOnUse" style="mask-type:alpha"><path fill="#FFE1F1" d="m.797 0 123.727 108.191c19.251 16.884 50.498 16.884 69.748 0L318 0H.797Z"/></mask><g mask="url(#mask0_703_220541)"><path fill="#fff" d="m192.047 122.746-27.957-16.204c-1.548-.873-2.128-2.911-1.258-4.561l14.995-26.101c.87-1.553 2.902-2.135 4.546-1.262l27.957 16.205c1.548.873 2.129 2.91 1.258 4.56l-14.994 26.102c-.968 1.65-2.999 2.232-4.547 1.261Z"/><path fill="#833632" d="m159.35 72.29.581 6.307s-5.901 3.299-7.449-4.076c-1.548-7.374-6.965-1.552-9.674 1.262-2.709 2.814-5.804 6.21-5.804 6.21s-3.483-18.727-3.096-18.921c.387-.195 16.639-11.16 16.833-10.674.193.485 6.965 10.674 6.965 10.674l1.644 9.218Z"/><path fill="#833632" d="M77.993 86.844c.678-.679 20.606-10.673 20.606-10.673s8.899-3.979 13.93-11.353c5.03-7.375 7.449-17.66 21.476-24.744 14.027-7.18 19.347-9.218 21.379-2.813 2.031 6.404 7.545 25.713 7.545 25.713s2.419 8.636 0 9.606c-2.418 1.068-6.191-3.202-7.545-6.889 0 0-1.451-8.636-9.674-2.426-8.223 6.21-2.709 13.488-7.449 18.728-4.74 5.24-9.287 9.218-15.575 11.255-6.288 2.038-14.51 4.755-25.055 14.361L77.993 86.844Z"/><path fill="#2FBA53" d="M163.702 66.856s-2.902-1.262-2.612.873c.291 2.135.387 3.396.387 3.59 0 .097.097 2.038 2.032 1.747 0 0 .774.097.774-.194.097-.291-.581-6.016-.581-6.016ZM159.544 74.23s-2.902-1.261-2.612.874c.29 2.134.387 3.396.387 3.59 0 .097.097 2.037 2.032 1.746 0 0 .774.097.774-.194 0-.388-.581-6.016-.581-6.016ZM202.687 57.153l-53.496 11.061-7.159-35.029c-.387-1.94.871-3.784 2.806-4.172l48.272-9.994c.967-.194 1.935.388 2.128 1.358l7.449 36.776Z"/><path fill="#2FBA53" d="m207.428 64.624-49.24 3.59c-1.451.097-2.708-.97-2.805-2.425l-2.322-32.215c-.193-2.426 1.645-4.56 4.063-4.755l47.498-3.493c1.451-.097 2.709.97 2.806 2.426l2.515 33.961c0 1.553-1.064 2.814-2.515 2.911Z"/><path fill="#6FD180" d="m149.385 27.946 1.161-.194s-.484.097-1.161.194Z"/><path fill="#8FDB9A" d="m207.717 57.347-6.868-33.574a2.535 2.535 0 0 0-2.999-1.94l-45.95 9.509c-3.483.68-6.288 1.067-6.579-.873-.193-1.359 2.516-2.135 4.063-2.523l-4.74.873c-1.838.388-2.999 2.135-2.612 3.881l1.355 7.278 6.771 8.927 4.547 21.93 51.078-10.577c1.257-.194 2.128-1.553 1.934-2.911Z"/><path fill="#F6A0CC" d="m193.403 67.923-48.272 3.784c-1.645.194-3.096-1.164-3.096-2.814l-2.322-30.371c-.193-1.65 1.161-3.105 2.806-3.105l48.272-3.784c1.644-.194 3.095 1.164 3.095 2.814l2.322 30.37c.097 1.36-1.161 2.912-2.805 3.106Z"/><path fill="#000" d="m194.854 47.06-.677-8.247-54.173 4.172.58 7.86 54.27-3.784Z"/><path fill="#81024B" d="m189.631 55.794-6.095.388c-1.644.097-3.095-1.165-3.192-2.814v-.291c-.097-1.65 1.161-3.105 2.805-3.202l6.095-.388c1.644-.098 3.095 1.164 3.192 2.813v.292c.194 1.552-1.064 3.008-2.805 3.202Z"/><path fill="#C36B5F" d="M159.157 46.382c-4.063-5.628-13.834 2.62-13.834 2.62s-14.898 12.905-18.283 7.083c-2.806-4.852 2.998-12.42 5.61-15.137.387-.291.678-.68 1.065-.97-14.027 7.18-16.543 17.368-21.476 24.743-4.934 7.471-13.93 11.353-13.93 11.353S78.38 86.068 77.702 86.747l19.445 20.765c10.641-9.606 18.767-12.323 25.055-14.36 6.288-2.038 10.834-6.017 15.574-11.257 3.483-3.784 1.452-8.635 3.29-13.39 3.579-6.307 7.739-7.277 7.739-7.277s14.414-9.122 10.351-14.846Z"/><path fill="#A8E5B5" d="M151.224 52.398s-3.29-2.911-.194-4.852c3.096-1.94 6.288-4.851 8.223-3.105 1.934 1.747.483 4.367-.968 5.92-1.451 1.552-4.353 5.336-7.061 2.037Z"/><path fill="#fff" d="m69.867 88.979 29.505-15.816 21.573 23.094-26.99 21.347-24.088-28.625ZM129.071 31.924c0-3.203-1.354-6.404-3.869-8.83-2.322-2.232-6.095-3.396-9.19-3.59 3.095-.195 6.771-1.456 9.19-3.688 2.515-2.426 3.869-5.628 3.869-8.83 0-.29 0-.388 0 0 0 3.202 1.258 6.404 3.87 8.83 2.322 2.232 5.998 3.59 9.093 3.784-3.095.194-6.675 1.262-8.996 3.494-2.612 2.425-3.967 5.627-3.967 8.83 0 .29 0 .29 0 0Z"/></g><path fill="#A8E5B5" d="M93.182 32.215c-1.451 6.501-11.028 37.552-56.108 39.783-1.257.097-2.418-.485-3.192-1.455L20.048 52.398c-.677-.97-.096-2.232 1.065-2.329 9.867-.485 42.66-4.658 47.498-35.514.193-1.358 1.741-1.94 2.805-1.164l20.992 16.883c.677.485.87 1.262.774 1.941Z"/><path fill="#6FD180" d="m20.048 52.398 13.834 18.048c.773.97 1.934 1.552 3.192 1.455 8.803-.388 16.252-1.94 22.54-4.172-5.805-7.375-11.706-14.652-17.413-22.124-8.513 3.3-16.832 4.173-20.992 4.367-1.258.194-1.838 1.455-1.161 2.426Z"/><path fill="#A8E5B5" d="M244.481 19.407c6.481 1.067 38.114 8.247 43.629 53.27.193 1.262-.291 2.426-1.258 3.3l-16.929 15.137c-.871.776-2.225.29-2.419-.874-1.257-9.8-7.739-42.306-38.791-44.926-1.355-.097-2.129-1.65-1.355-2.717l15.285-22.317c.483-.68 1.161-.97 1.838-.873Z"/><path fill="#6FD180" d="m269.923 91.114 17.026-15.137c.967-.776 1.354-2.038 1.257-3.3-1.064-8.83-3.192-16.107-5.804-22.317-6.868 6.307-13.737 12.712-20.702 19.019 3.87 8.344 5.321 16.592 5.901 20.668.097 1.261 1.451 1.843 2.322 1.067Z"/><path fill="#fff" d="M87.28 52.592c4.06 0 7.352-3.302 7.352-7.375s-3.292-7.374-7.352-7.374c-4.06 0-7.352 3.301-7.352 7.374 0 4.073 3.291 7.375 7.352 7.375ZM264.988 34.835c4.06 0 7.352-3.302 7.352-7.375 0-4.072-3.292-7.374-7.352-7.374-4.06 0-7.352 3.302-7.352 7.374 0 4.073 3.292 7.375 7.352 7.375Z"/><path fill="#FAC1DE" d="M240.417 117.41c0-3.299 1.354-6.599 3.966-9.121 2.418-2.329 6.288-3.494 9.48-3.688-3.192-.194-6.965-1.455-9.383-3.784-2.612-2.523-3.967-5.822-3.967-9.121 0-.388 0-.388 0 0 0 3.3-1.354 6.598-3.966 9.121-2.418 2.329-6.191 3.687-9.383 3.881 3.192.194 6.868 1.262 9.286 3.591 2.612 2.522 3.967 5.822 3.967 9.121 0 .291 0 .291 0 0Z"/><path fill="#A8E5B5" d="M14.34 47.546c0-3.3 1.354-6.598 4.063-9.218 2.419-2.329 6.385-3.59 9.577-3.687-3.192-.194-7.062-1.456-9.48-3.882-2.612-2.523-4.063-5.822-4.063-9.12 0-.389 0-.389 0 0 0 3.298-1.354 6.695-3.966 9.217-2.419 2.33-6.192 3.785-9.48 3.882 3.192.194 6.964 1.261 9.383 3.687 2.612 2.426 3.966 5.822 3.966 9.121 0 .291 0 .291 0 0Z"/><path fill="#D1F2D5" d="M84.668 112.946c2.939 0 5.321-2.389 5.321-5.337 0-2.947-2.382-5.337-5.32-5.337-2.939 0-5.321 2.39-5.321 5.337 0 2.948 2.382 5.337 5.32 5.337ZM308.52 43.18c2.939 0 5.321-2.39 5.321-5.337 0-2.948-2.382-5.337-5.321-5.337-2.938 0-5.321 2.39-5.321 5.337 0 2.947 2.383 5.337 5.321 5.337Z"/></svg>