<svg xmlns="http://www.w3.org/2000/svg" width="318" height="122" fill="none" viewBox="0 0 318 122"><path fill="#FFE1F1" d="M.299 0 124.22 108.361c19.281 16.91 50.576 16.91 69.857 0L318 0H.299Z"/><mask id="mask0_2308_28567" width="318" height="122" x="0" y="0" maskUnits="userSpaceOnUse" style="mask-type:alpha"><path fill="#FFE1F1" d="M.299 0 124.22 108.361c19.281 16.91 50.576 16.91 69.857 0L318 0H.299Z"/></mask><g mask="url(#mask0_2308_28567)"><path fill="#000" d="M179.738 39.458h-46.701c-2.907 0-5.523 1.457-7.267 3.79L102.904 75.61h108.807l-24.416-32.265c-1.744-2.527-4.554-3.887-7.557-3.887Z"/><path fill="#FFAF86" d="M153.578 75.61 137.01 51.51c-1.066-1.555-3.197-1.555-4.263 0l-16.665 24.199v58.311h84.488V75.708h-46.992v-.097Z"/><path fill="#FF8047" d="M207.351 39.263c8.883 0 16.084-7.223 16.084-16.133s-7.201-16.133-16.084-16.133-16.083 7.223-16.083 16.133 7.2 16.133 16.083 16.133Z"/><path fill="#fff" d="M-17.432 39.069c1.066-1.361 49.414-31.974 97.374-5.443 0 0 18.603-8.358 29.261 5.637l-126.635-.194Z"/><path fill="#F8A2CE" d="M249.112 34.598a3.59 3.59 0 0 0 3.585-3.596 3.59 3.59 0 0 0-3.585-3.596 3.59 3.59 0 0 0-3.585 3.596 3.59 3.59 0 0 0 3.585 3.596Z"/><path fill="#fff" d="M124.124 19.826a3.59 3.59 0 0 0 3.585-3.596 3.59 3.59 0 0 0-3.585-3.596 3.59 3.59 0 0 0-3.585 3.596 3.59 3.59 0 0 0 3.585 3.596Z"/><path fill="#FFE4D8" d="M321.682 45.385c0-3.693 1.551-7.386 4.457-10.107 2.713-2.624 7.073-3.887 10.561-4.082-3.488-.194-7.848-1.652-10.464-4.276-2.907-2.818-4.457-6.414-4.457-10.107 0-.389 0-.486 0 0 0 3.693-1.453 7.386-4.36 10.107-2.713 2.624-6.879 4.18-10.464 4.276 3.488.195 7.654 1.458 10.367 3.985 2.907 2.818 4.36 6.511 4.36 10.204 0 .292 0 .292 0 0Z"/><path fill="#FAC1DE" d="M249.112 34.598a3.59 3.59 0 0 0 3.585-3.596 3.59 3.59 0 0 0-3.585-3.596 3.59 3.59 0 0 0-3.585 3.596 3.59 3.59 0 0 0 3.585 3.596Z"/><path fill="#fff" d="M145.343 127.701h-22.091V88.147c0-6.123 4.941-11.08 11.045-11.08s11.046 4.957 11.046 11.08V127.7Z"/></g><path fill="#FAC1DE" d="M218.592 54.52c.775-.971 36.43-23.615 71.698-4.081 0 0 13.662-6.123 21.606 4.179l-93.304-.097ZM64.44 101.267c0-3.693 1.55-7.386 4.457-10.108 2.713-2.624 7.073-3.887 10.561-4.081-3.488-.195-7.848-1.652-10.464-4.276-2.907-2.819-4.457-6.415-4.457-10.108 0-.388 0-.486 0 0 0 3.693-1.453 7.386-4.36 10.108-2.713 2.624-6.88 4.179-10.464 4.276 3.488.194 7.654 1.457 10.367 3.984 2.907 2.819 4.36 6.512 4.36 10.205 0 .388 0 .388 0 0Z"/><path fill="#FFE5E1" d="M240.197 92.423c2.997 0 5.426-2.437 5.426-5.442 0-3.006-2.429-5.443-5.426-5.443-2.996 0-5.426 2.437-5.426 5.443 0 3.005 2.43 5.442 5.426 5.442Z"/><path fill="#FFE4D8" d="M20.937 52.188c3.585 0 6.491-2.915 6.491-6.511s-2.906-6.512-6.491-6.512c-3.585 0-6.492 2.916-6.492 6.512 0 3.596 2.907 6.511 6.492 6.511ZM240.197 92.423c2.997 0 5.426-2.437 5.426-5.442 0-3.006-2.429-5.443-5.426-5.443-2.996 0-5.426 2.437-5.426 5.443 0 3.005 2.43 5.442 5.426 5.442Z"/></svg>